<?xml version="1.0" standalone="no"?>
<!DOCTYPE svg PUBLIC "-//W3C//DTD SVG 20010904//EN"
 "http://www.w3.org/TR/2001/REC-SVG-20010904/DTD/svg10.dtd">
<svg version="1.0" xmlns="http://www.w3.org/2000/svg"
 width="265.000000pt" height="265.000000pt" viewBox="0 0 265.000000 265.000000"
 preserveAspectRatio="xMidYMid meet">
<metadata>
Created by potrace 1.14, written by Peter Selinger 2001-2017
</metadata>
<g transform="translate(0.000000,265.000000) scale(0.100000,-0.100000)"
fill="#000000" stroke="none">
<path d="M1723 1781 l108 -48 115 -192 115 -193 -51 -93 c-114 -213 -173 -320
-180 -329 -5 -5 -57 -28 -117 -52 l-108 -43 150 -1 150 0 35 62 c19 34 44 78
55 97 55 98 139 240 140 238 1 -1 57 -91 125 -199 l122 -198 131 1 132 1 -95
45 c-53 24 -100 53 -105 64 -9 17 -203 339 -231 384 -12 18 0 40 115 214 l127
194 95 48 94 48 -134 0 c-116 1 -136 -1 -147 -16 -7 -10 -59 -93 -116 -185
-57 -92 -106 -168 -109 -168 -3 0 -52 83 -110 185 l-104 185 -155 0 -155 -1
108 -48z"/>
<path d="M120 1640 c-30 -11 -55 -20 -57 -20 -1 0 -3 -24 -5 -52 -3 -49 -5
-53 -28 -53 -23 0 -25 -4 -28 -47 -3 -47 -3 -48 27 -48 l31 0 1 -150 c1 -82 2
-153 3 -157 6 -37 33 -73 67 -93 34 -19 52 -22 115 -18 45 2 78 8 83 16 6 10
7 45 2 95 -1 4 -10 3 -20 -3 -11 -5 -36 -10 -55 -10 -45 0 -76 29 -77 73 -1
39 -1 205 0 230 1 14 11 17 70 17 l69 0 -3 43 c-1 23 -3 45 -4 48 0 3 -28 5
-62 4 -71 -2 -75 3 -73 90 1 30 2 55 1 55 -1 -1 -27 -10 -57 -20z"/>
<path d="M1593 1639 c-29 -11 -53 -25 -54 -30 0 -5 -2 -28 -2 -51 -2 -38 -5
-43 -27 -43 -30 0 -37 -14 -32 -61 4 -29 8 -34 31 -34 l28 0 0 -154 c1 -168
10 -204 60 -241 30 -21 119 -32 177 -21 27 5 35 12 38 34 2 15 1 39 -2 54 -4
22 -8 25 -20 18 -28 -18 -95 -12 -115 10 -16 18 -19 39 -19 158 l-1 137 70 5
70 5 0 40 c1 22 -3 43 -7 46 -5 3 -35 5 -68 3 -36 -1 -60 3 -62 10 -3 6 -4 39
-3 74 1 34 -1 62 -4 61 -4 0 -30 -9 -58 -20z"/>
<path d="M607 1519 c-95 -14 -180 -90 -205 -182 -13 -46 -9 -151 8 -192 47
-121 193 -176 344 -131 74 22 79 30 54 80 l-20 43 -37 -19 c-43 -23 -133 -23
-172 0 -30 17 -59 61 -59 89 0 17 11 18 176 18 199 -1 193 -3 189 80 -6 145
-126 236 -278 214z m104 -110 c22 -9 59 -63 59 -87 0 -4 -55 -7 -122 -7 -115
1 -123 2 -120 19 13 75 96 109 183 75z"/>
<path d="M940 1513 c0 -2 36 -53 80 -114 45 -60 83 -116 86 -124 3 -8 -34 -66
-86 -135 -50 -66 -89 -124 -86 -128 4 -7 126 -7 131 0 1 2 27 38 59 81 l57 78
61 -78 c34 -43 62 -80 64 -82 3 -3 93 -5 132 -2 7 1 -24 46 -70 102 -46 56
-93 114 -105 129 l-22 27 94 119 c52 66 95 121 95 124 0 3 -29 5 -64 5 l-65
-1 -61 -77 -61 -78 -51 76 c-28 41 -56 76 -62 76 -28 3 -126 4 -126 2z"/>
</g>
</svg>
